# xmcd CD database file
# Generated: Fr Apr 9 00:57:03 2004 by KSCD
# 
# Track frame offsets:
#       150
#       15739
#       27766
#       42761
#       59346
#       73874
#       93889
#       109792
#       139635
#       156030
#       171114
#       184923
#       196959
#       212609
#       222937
#       254160
#       272451
#       282113
#       291746
#       308993
#
# Disc length: 4411 seconds
#
# Revision: 10
# Processed by: cddbd v1.5PL3 Copyright (c) Steve Scherf et al.
# Submitted via: Kscd 1.3.3
#
DISCID=2e113914
DTITLE=Piano Connection and Marcs Boogie - Boogie Woogie  and Blues
DYEAR=1900
DGENRE=
TTITLE0=B-Ball Boogie
TTITLE1=Marc's Boogie
TTITLE2=It's Monday Morning
TTITLE3=Rhytm' Woogie
TTITLE4=Hyatt On Fryatt
TTITLE5=Slow Crossair Boogie
TTITLE6=Six Wheel Chaser
TTITLE7=Leaving
TTITLE8=Champagne For Ali Baba
TTITLE9=Jumpy Stew
TTITLE10=Honky Tonk Blues
TTITLE11=Hermann's Blues
TTITLE12=Call Me Back
TTITLE13=Jacky's-Boogie
TTITLE14=Taxi Club Boogie
TTITLE15=I Remember Jimmy Yancey
TTITLE16=Fast Boogie
TTITLE17=Boogie-Woogie Man
TTITLE18=Roy's Rocket Fuel
TTITLE19=Takeaway
EXTD=
EXTT0=
EXTT1=
EXTT2=
EXTT3=
EXTT4=
EXTT5=
EXTT6=
EXTT7=
EXTT8=
EXTT9=
EXTT10=
EXTT11=
EXTT12=
EXTT13=
EXTT14=
EXTT15=
EXTT16=
EXTT17=
EXTT18=
EXTT19=
PLAYORDER=
